<?xml version="1.0" encoding="utf-8"?>
<!-- Generator: Adobe Illustrator 21.0.1, SVG Export Plug-In . SVG Version: 6.00 Build 0)  -->
<svg version="1.1" id="Layer_1" xmlns="http://www.w3.org/2000/svg" xmlns:xlink="http://www.w3.org/1999/xlink" x="0px" y="0px"
	 viewBox="0 0 300 100" style="enable-background:new 0 0 300 100;" xml:space="preserve">
<style type="text/css">
	.st0{fill:#FFFFFF;}
</style>
<g>
	<path class="st0" d="M31.5,71h13.1v9c-4,3.2-7.5,4.1-11.5,4.1c-12.7,0-17.6-8.7-17.6-17.1c0-10.5,6.6-18.8,17.6-18.8
		c4.4,0,9.6,1.8,13,5.1l6-6.1c-5.2-5.2-12.1-7.8-19-7.8c-18,0-27,13.3-27,27.6c0,13.4,7.8,26,27,26c9,0,15.3-3.4,20.3-9.2V62.4H31.5
		V71z"/>
	<path class="st0" d="M103.2,57.8c0-8.8-6.3-16.8-18.4-16.9c-8.1,0-16.2-0.1-24.3-0.1V92h9.6V74.9h9.3L94.4,92h11.4v-0.7L90.3,73.9
		C100,71.9,103.2,64.8,103.2,57.8z M70.2,66.2V49.9h14.7c6.1,0,8.7,4.1,8.7,8.2s-2.6,8.2-8.7,8.2H70.2z"/>
	<path class="st0" d="M156,58.2V41h-9.6v29.2c0,8.7-4.5,14.1-12.5,14.1s-13.2-4.9-13.2-14.1V41h-9.6v29.2
		c0,15.4,10.4,22.8,22.7,22.8c2.4,0,4.7-0.3,6.8-0.8l13.9-31L156,58.2z"/>
	<g>
		<circle class="st0" cx="196.6" cy="17.6" r="2.1"/>
		<path class="st0" d="M274.3,77.6h-14.4v15h-9.6v-51c8,0,16-0.1,24.1-0.1C299.2,41.5,299.3,77.6,274.3,77.6z M259.8,68.8h14.4
			c12.3,0,12.2-18.1,0-18.1h-14.4V68.8z"/>
		<g>
			<path class="st0" d="M214.7,27c-0.7-0.7-1.9-0.7-2.7,0c-0.7,0.7-0.7,1.9,0,2.7c1,1,1.3,2.6,0.7,3.9c-0.2,0.4-0.4,0.7-0.7,1
				c-0.3,0.3-0.3,0.2-0.7,0.4c0.6,0.5,1.4,0.9,2.5,1.2c0.6,0.2,1.1,0.3,1.6,0.3c0.5-0.6,0.6-1,0.9-1.7
				C217.4,32.2,216.8,29.1,214.7,27z"/>
			<path class="st0" d="M232.4,37.6c-5.2-1.2-10-2.2-15.2-3.4l-0.4,1c0.7,0.5,0.7,0.9,0.5,1.3c-0.2,0.6-1.1,0.8-2.4,0.7
				c-0.5,0-1-0.2-1.6-0.3c-1-0.3-1.9-0.8-2.5-1.2c-0.5-0.4-0.8-0.9-0.7-1.3c0.2-0.5,0.5-1,1.7-0.9l0.1-0.6c-1.2-0.3-1.9-0.4-3.1-0.7
				l-11.5,49.7l9.4,2.2l3.4-14.6l14.1,3.3C248.6,78.4,256.7,43.2,232.4,37.6z M226.2,64.1l-14.1-3.3l4.1-17.6l14.1,3.3
				C242.3,49.3,238.3,66.9,226.2,64.1z"/>
		</g>
		<g>
			<path class="st0" d="M207.5,28.7v-9.8l3.1-3.1c2.7-2.7,2.4-7.2-0.6-9.5c-2.5-2-6.1-1.7-8.4,0.5l-33.7,33.7l-1.1,1l-22.9,51h10.4
				l4.4-9.6h26.7l4.3,9.6h10.5l-20.6-45.8l24.1-24.1V28c-2.3,2.8-2.1,7,0.6,9.7c0.6,0.6,1.2,1,2,1.4l0.9-3.8
				c-0.1-0.1-0.2-0.1-0.2-0.2c-1.4-1.4-1.4-3.6,0-4.9C207.3,29.7,207.5,29.2,207.5,28.7z M181.6,74h-19l9.4-21.5h0.2L181.6,74z
				 M205.8,14c-1.3,0-2.4-1.1-2.4-2.4c0-1.3,1.1-2.4,2.4-2.4c1.3,0,2.4,1.1,2.4,2.4C208.1,13,207.1,14,205.8,14z"/>
		</g>
	</g>
</g>
</svg>
